<svg id="Layer_1" data-name="Layer 1" xmlns="http://www.w3.org/2000/svg" viewBox="0 0 122.88 122.88">
    <defs>
        <style>
            .cls-1 {
                fill: #45668e;
            }

            .cls-1,
            .cls-2 {
                fill-rule: evenodd;
            }

            .cls-2 {
                fill: #fff;
            }
        </style>
    </defs>
    <title>vk-square-color</title>
    <path class="cls-1"
        d="M25.2,0H97.68a25.27,25.27,0,0,1,25.2,25.2V97.68a25.27,25.27,0,0,1-25.2,25.2H25.2A25.27,25.27,0,0,1,0,97.68V25.2A25.27,25.27,0,0,1,25.2,0Z" />
    <path class="cls-2"
        d="M96.15,42.79c.5-1.68,0-2.93-2.4-2.93h-8a3.44,3.44,0,0,0-3.46,2.25s-4,9.86-9.77,16.27c-1.86,1.85-2.71,2.44-3.71,2.44-.5,0-1.27-.59-1.27-2.27V42.81c0-2-.56-2.92-2.24-2.92H52.84a1.91,1.91,0,0,0-2,1.83c0,1.92,2.85,2.35,3.16,7.74V61.17c0,2.57-.46,3-1.48,3-2.71,0-9.25-9.9-13.15-21.24-.77-2.2-1.53-3.1-3.56-3.1h-8c-2.27,0-2.72,1.07-2.72,2.25,0,2.11,2.7,12.56,12.56,26.36C44.23,77.91,53.5,83,61.92,83c5,0,5.66-1.14,5.66-3.1V72.79c0-2.27.48-2.73,2.08-2.73,1.17,0,3.2.59,7.91,5.15C83,80.6,83.85,83,86.88,83h8c2.27,0,3.4-1.14,2.75-3.38s-3.29-5.48-6.72-9.31c-1.85-2.18-4.62-4.56-5.47-5.74-1.18-1.53-.85-2.18,0-3.53,0,0,9.68-13.65,10.71-18.27Z" />
</svg>